<svg width="47" height="47" viewBox="0 0 47 47" fill="none" xmlns="http://www.w3.org/2000/svg">
<path d="M41.9643 3.35714H35.25V1.67857C35.25 1.23339 35.0732 0.806435 34.7584 0.491642C34.4436 0.176849 34.0166 0 33.5714 0C33.1262 0 32.6993 0.176849 32.3845 0.491642C32.0697 0.806435 31.8929 1.23339 31.8929 1.67857V3.35714H15.1071V1.67857C15.1071 1.23339 14.9303 0.806435 14.6155 0.491642C14.3007 0.176849 13.8738 0 13.4286 0C12.9834 0 12.5564 0.176849 12.2416 0.491642C11.9268 0.806435 11.75 1.23339 11.75 1.67857V3.35714H5.03571C3.70016 3.35714 2.41931 3.88769 1.47493 4.83207C0.530547 5.77645 0 7.0573 0 8.39286V41.9643C0 43.2998 0.530547 44.5807 1.47493 45.5251C2.41931 46.4695 3.70016 47 5.03571 47H41.9643C43.2998 47 44.5807 46.4695 45.5251 45.5251C46.4695 44.5807 47 43.2998 47 41.9643V8.39286C47 7.0573 46.4695 5.77645 45.5251 4.83207C44.5807 3.88769 43.2998 3.35714 41.9643 3.35714ZM5.03571 6.71429H41.9643C42.4095 6.71429 42.8364 6.89114 43.1512 7.20593C43.466 7.52072 43.6429 7.94767 43.6429 8.39286V13.4286H3.35714V8.39286C3.35714 7.94767 3.53399 7.52072 3.84879 7.20593C4.16358 6.89114 4.59053 6.71429 5.03571 6.71429ZM41.9643 43.6429H5.03571C4.59053 43.6429 4.16358 43.466 3.84879 43.1512C3.53399 42.8364 3.35714 42.4095 3.35714 41.9643V16.7857H43.6429V41.9643C43.6429 42.4095 43.466 42.8364 43.1512 43.1512C42.8364 43.466 42.4095 43.6429 41.9643 43.6429Z" fill="white"/>
<path d="M30.802 22.226L20.227 31.2903L16.289 27.3541C15.9724 27.0483 15.5484 26.8791 15.1083 26.8829C14.6682 26.8868 14.2472 27.0633 13.936 27.3745C13.6248 27.6857 13.4482 28.1067 13.4444 28.5469C13.4406 28.987 13.6098 29.411 13.9155 29.7276L18.9512 34.7633C19.2502 35.0619 19.6508 35.2367 20.0731 35.2529C20.4953 35.269 20.9081 35.1254 21.2291 34.8506L32.9791 24.7791C33.1559 24.6389 33.3027 24.4643 33.4106 24.266C33.5185 24.0677 33.5852 23.8497 33.6069 23.6249C33.6285 23.4002 33.6046 23.1735 33.5366 22.9582C33.4686 22.7429 33.3578 22.5436 33.211 22.3721C33.0641 22.2007 32.8842 22.0606 32.682 21.9602C32.4797 21.8599 32.2593 21.8014 32.0339 21.7883C31.8086 21.7751 31.5829 21.8075 31.3703 21.8836C31.1578 21.9597 30.9627 22.0779 30.7969 22.2311L30.802 22.226Z" fill="white"/>
</svg>
