<svg width="55" height="55" viewBox="0 0 55 55" fill="none" xmlns="http://www.w3.org/2000/svg">
<g clip-path="url(#clip0_30_274)">
<path d="M51.3333 8.66624H45.8333C45.8333 8.18001 45.6402 7.7137 45.2964 7.36988C44.9525 7.02606 44.4862 6.83291 44 6.83291H43.3941C42.9036 6.25821 42.2942 5.79674 41.6081 5.4803C40.922 5.16387 40.1754 5 39.4199 5C38.6643 5 37.9177 5.16387 37.2316 5.4803C36.5455 5.79674 35.9362 6.25821 35.4457 6.83291H34.8333C34.3471 6.83291 33.8808 7.02606 33.537 7.36988C33.1932 7.7137 33 8.18001 33 8.66624H27.5C26.6895 8.66928 25.9028 8.9408 25.2629 9.43835C24.6231 9.9359 24.1661 10.6314 23.9635 11.4162H11.1485C10.3789 11.4155 9.62856 11.6574 9.00423 12.1075C8.3799 12.5575 7.91328 13.1929 7.67067 13.9233L5.74017 19.713C5.48463 19.4122 5.16697 19.1703 4.80902 19.004C4.45108 18.8377 4.06136 18.7509 3.66667 18.7496H2.75C2.06822 18.7578 1.41382 19.019 0.913773 19.4826C0.413728 19.9461 0.103703 20.5788 0.0438578 21.258C-0.0159872 21.9372 0.178616 22.6144 0.589904 23.1582C1.00119 23.702 1.59984 24.0737 2.26967 24.201L1.33375 24.7629C0.927944 25.0088 0.592148 25.3548 0.35859 25.7679C0.125031 26.1809 0.00155096 26.647 0 27.1215L0 38.9162C0.00234939 39.483 0.179744 40.0352 0.507914 40.4972C0.836084 40.9593 1.299 41.3087 1.83333 41.4976V43.4996C1.83333 44.2289 2.12306 44.9284 2.63879 45.4441C3.15451 45.9598 3.85399 46.2496 4.58333 46.2496H8.25C8.97935 46.2496 9.67882 45.9598 10.1945 45.4441C10.7103 44.9284 11 44.2289 11 43.4996V41.6662H23.8333V43.4996C23.8333 44.472 24.2196 45.4047 24.9073 46.0923C25.5949 46.7799 26.5275 47.1662 27.5 47.1662H51.3333C52.3058 47.1662 53.2384 46.7799 53.9261 46.0923C54.6137 45.4047 55 44.472 55 43.4996V12.3329C55 11.3604 54.6137 10.4278 53.9261 9.74018C53.2384 9.05255 52.3058 8.66624 51.3333 8.66624ZM34.8333 8.66624H35.97C36.1451 8.66624 36.3166 8.61609 36.4641 8.5217C36.6116 8.42732 36.729 8.29266 36.8023 8.13366C37.0815 7.70241 37.4715 7.35413 37.9314 7.12529C38.3913 6.89645 38.9043 6.79547 39.4167 6.83291C39.9311 6.79657 40.4459 6.89864 40.9076 7.1285C41.3692 7.35837 41.7609 7.70765 42.042 8.14007C42.1162 8.29759 42.2337 8.43073 42.3807 8.52391C42.5278 8.6171 42.6984 8.66646 42.8725 8.66624H44V10.4996H34.8333V8.66624ZM23.8333 30.6662H12.8333C12.8333 30.18 13.0265 29.7137 13.3703 29.3699C13.7141 29.0261 14.1804 28.8329 14.6667 28.8329H23.8333V30.6662ZM9.4105 14.5036C9.53204 14.1387 9.76527 13.8212 10.0772 13.5962C10.3891 13.3711 10.7639 13.2499 11.1485 13.2496H23.8333V22.4162H6.77142L9.4105 14.5036ZM1.83333 21.4996C1.83333 21.2565 1.92991 21.0233 2.10182 20.8514C2.27373 20.6795 2.50688 20.5829 2.75 20.5829H3.66667C3.90978 20.5829 4.14294 20.6795 4.31485 20.8514C4.48676 21.0233 4.58333 21.2565 4.58333 21.4996V22.4162H2.75C2.50688 22.4162 2.27373 22.3197 2.10182 22.1478C1.92991 21.9758 1.83333 21.7427 1.83333 21.4996ZM9.16667 43.4996C9.16667 43.7427 9.07009 43.9758 8.89818 44.1478C8.72627 44.3197 8.49312 44.4162 8.25 44.4162H4.58333C4.34022 44.4162 4.10706 44.3197 3.93515 44.1478C3.76324 43.9758 3.66667 43.7427 3.66667 43.4996V41.6662H9.16667V43.4996ZM2.75 39.8329C2.50688 39.8329 2.27373 39.7363 2.10182 39.5644C1.92991 39.3925 1.83333 39.1594 1.83333 38.9162V27.1215C1.83393 26.9632 1.87512 26.8077 1.95295 26.6698C2.03079 26.532 2.14267 26.4164 2.27792 26.3341L5.75392 24.2496H23.8333V26.9996H14.6667C13.6942 26.9996 12.7616 27.3859 12.0739 28.0735C11.3863 28.7612 11 29.6938 11 30.6662C11 31.1525 11.1932 31.6188 11.537 31.9626C11.8808 32.3064 12.3471 32.4996 12.8333 32.4996H23.8333V35.2496H13.75C13.5069 35.2496 13.2737 35.3462 13.1018 35.5181C12.9299 35.69 12.8333 35.9231 12.8333 36.1662C12.8333 36.4094 12.9299 36.6425 13.1018 36.8144C13.2737 36.9863 13.5069 37.0829 13.75 37.0829H23.8333V39.8329H2.75ZM53.1667 43.4996C53.1667 43.9858 52.9735 44.4521 52.6297 44.7959C52.2859 45.1398 51.8196 45.3329 51.3333 45.3329H27.5C27.0138 45.3329 26.5475 45.1398 26.2036 44.7959C25.8598 44.4521 25.6667 43.9858 25.6667 43.4996V12.3329C25.6667 11.8467 25.8598 11.3804 26.2036 11.0365C26.5475 10.6927 27.0138 10.4996 27.5 10.4996H33C33 10.9858 33.1932 11.4521 33.537 11.7959C33.8808 12.1398 34.3471 12.3329 34.8333 12.3329H44C44.4862 12.3329 44.9525 12.1398 45.2964 11.7959C45.6402 11.4521 45.8333 10.9858 45.8333 10.4996H51.3333C51.8196 10.4996 52.2859 10.6927 52.6297 11.0365C52.9735 11.3804 53.1667 11.8467 53.1667 12.3329V43.4996Z" fill="white"/>
<path d="M6.41699 27.5C5.68765 27.5 4.98817 27.7897 4.47245 28.3055C3.95672 28.8212 3.66699 29.5207 3.66699 30.25V32.0833C3.66699 32.8127 3.95672 33.5122 4.47245 34.0279C4.98817 34.5436 5.68765 34.8333 6.41699 34.8333C7.14634 34.8333 7.84581 34.5436 8.36154 34.0279C8.87726 33.5122 9.16699 32.8127 9.16699 32.0833V30.25C9.16699 29.5207 8.87726 28.8212 8.36154 28.3055C7.84581 27.7897 7.14634 27.5 6.41699 27.5ZM7.33366 32.0833C7.33366 32.3264 7.23708 32.5596 7.06517 32.7315C6.89327 32.9034 6.66011 33 6.41699 33C6.17388 33 5.94072 32.9034 5.76881 32.7315C5.5969 32.5596 5.50033 32.3264 5.50033 32.0833V30.25C5.50033 30.0069 5.5969 29.7737 5.76881 29.6018C5.94072 29.4299 6.17388 29.3333 6.41699 29.3333C6.66011 29.3333 6.89327 29.4299 7.06517 29.6018C7.23708 29.7737 7.33366 30.0069 7.33366 30.25V32.0833Z" fill="white"/>
<path d="M34.9875 16.9078L31.9414 21.4783L30.8982 20.4352C30.7253 20.2682 30.4938 20.1758 30.2534 20.1779C30.0131 20.18 29.7832 20.2764 29.6132 20.4463C29.4433 20.6163 29.3468 20.8462 29.3448 21.0866C29.3427 21.3269 29.4351 21.5585 29.602 21.7313L31.4354 23.5647C31.6072 23.7366 31.8404 23.8332 32.0835 23.8333C32.1128 23.8333 32.143 23.8333 32.1751 23.8333C32.31 23.8199 32.4402 23.7768 32.5564 23.707C32.6725 23.6373 32.7718 23.5426 32.847 23.4299L36.5137 17.9299C36.6486 17.7277 36.6977 17.4801 36.6501 17.2416C36.6025 17.0032 36.4621 16.7934 36.2598 16.6585C36.0575 16.5236 35.8099 16.4745 35.5715 16.5222C35.3331 16.5698 35.1233 16.7102 34.9884 16.9124L34.9875 16.9078Z" fill="white"/>
<path d="M47.6667 18.3333H39.4167C39.1736 18.3333 38.9404 18.4298 38.7685 18.6017C38.5966 18.7736 38.5 19.0068 38.5 19.2499C38.5 19.493 38.5966 19.7262 38.7685 19.8981C38.9404 20.07 39.1736 20.1666 39.4167 20.1666H47.6667C47.9098 20.1666 48.1429 20.07 48.3148 19.8981C48.4868 19.7262 48.5833 19.493 48.5833 19.2499C48.5833 19.0068 48.4868 18.7736 48.3148 18.6017C48.1429 18.4298 47.9098 18.3333 47.6667 18.3333Z" fill="white"/>
<path d="M39.4167 23.8333H44.7498C44.9929 23.8333 45.2261 23.7368 45.398 23.5648C45.5699 23.3929 45.6665 23.1598 45.6665 22.9167C45.6665 22.6736 45.5699 22.4404 45.398 22.2685C45.2261 22.0966 44.9929 22 44.7498 22H39.4167C39.1736 22 38.9404 22.0966 38.7685 22.2685C38.5966 22.4404 38.5 22.6736 38.5 22.9167C38.5 23.1598 38.5966 23.3929 38.7685 23.5648C38.9404 23.7368 39.1736 23.8333 39.4167 23.8333Z" fill="white"/>
<path d="M34.9875 26.0745L31.9414 30.645L30.8982 29.6019C30.7253 29.4349 30.4938 29.3425 30.2534 29.3446C30.0131 29.3467 29.7832 29.4431 29.6132 29.613C29.4433 29.783 29.3468 30.0129 29.3448 30.2533C29.3427 30.4936 29.4351 30.7252 29.602 30.898L31.4354 32.7314C31.6072 32.9033 31.8404 32.9999 32.0835 33C32.1128 33 32.143 33 32.1751 32.9954C32.31 32.982 32.4402 32.9389 32.5564 32.8691C32.6725 32.7994 32.7718 32.7048 32.847 32.592L36.5137 27.092C36.6486 26.8898 36.6977 26.6422 36.6501 26.4037C36.6025 26.1653 36.4621 25.9555 36.2598 25.8206C36.0575 25.6857 35.8099 25.6366 35.5715 25.6843C35.3331 25.7319 35.1224 25.8723 34.9875 26.0745Z" fill="white"/>
<path d="M47.6667 27.5H39.4167C39.1736 27.5 38.9404 27.5966 38.7685 27.7685C38.5966 27.9404 38.5 28.1736 38.5 28.4167C38.5 28.6598 38.5966 28.8929 38.7685 29.0648C38.9404 29.2368 39.1736 29.3333 39.4167 29.3333H47.6667C47.9098 29.3333 48.1429 29.2368 48.3148 29.0648C48.4868 28.8929 48.5833 28.6598 48.5833 28.4167C48.5833 28.1736 48.4868 27.9404 48.3148 27.7685C48.1429 27.5966 47.9098 27.5 47.6667 27.5Z" fill="white"/>
<path d="M39.4167 33.0001H44.7498C44.9929 33.0001 45.2261 32.9035 45.398 32.7316C45.5699 32.5597 45.6665 32.3265 45.6665 32.0834C45.6665 31.8403 45.5699 31.6071 45.398 31.4352C45.2261 31.2633 44.9929 31.1667 44.7498 31.1667H39.4167C39.1736 31.1667 38.9404 31.2633 38.7685 31.4352C38.5966 31.6071 38.5 31.8403 38.5 32.0834C38.5 32.3265 38.5966 32.5597 38.7685 32.7316C38.9404 32.9035 39.1736 33.0001 39.4167 33.0001Z" fill="white"/>
<path d="M34.9875 35.2413L31.9414 39.8118L30.8982 38.7686C30.7253 38.6016 30.4938 38.5092 30.2534 38.5113C30.0131 38.5134 29.7832 38.6098 29.6132 38.7798C29.4433 38.9497 29.3468 39.1797 29.3448 39.42C29.3427 39.6603 29.4351 39.8919 29.602 40.0648L31.4354 41.8981C31.6072 42.07 31.8404 42.1667 32.0835 42.1667C32.1128 42.1667 32.143 42.1667 32.1751 42.1621C32.31 42.1487 32.4402 42.1056 32.5564 42.0359C32.6725 41.9661 32.7718 41.8715 32.847 41.7588L36.5137 36.2588C36.6486 36.0565 36.6977 35.8089 36.6501 35.5705C36.6025 35.3321 36.4621 35.1223 36.2598 34.9874C36.0575 34.8524 35.8099 34.8034 35.5715 34.851C35.3331 34.8986 35.1224 35.039 34.9875 35.2413Z" fill="white"/>
<path d="M47.6667 36.6667H39.4167C39.1736 36.6667 38.9404 36.7633 38.7685 36.9352C38.5966 37.1071 38.5 37.3403 38.5 37.5834C38.5 37.8265 38.5966 38.0597 38.7685 38.2316C38.9404 38.4035 39.1736 38.5001 39.4167 38.5001H47.6667C47.9098 38.5001 48.1429 38.4035 48.3148 38.2316C48.4868 38.0597 48.5833 37.8265 48.5833 37.5834C48.5833 37.3403 48.4868 37.1071 48.3148 36.9352C48.1429 36.7633 47.9098 36.6667 47.6667 36.6667Z" fill="white"/>
<path d="M44.7498 40.3333H39.4167C39.1736 40.3333 38.9404 40.4298 38.7685 40.6017C38.5966 40.7736 38.5 41.0068 38.5 41.2499C38.5 41.493 38.5966 41.7262 38.7685 41.8981C38.9404 42.07 39.1736 42.1666 39.4167 42.1666H44.7498C44.9929 42.1666 45.2261 42.07 45.398 41.8981C45.5699 41.7262 45.6665 41.493 45.6665 41.2499C45.6665 41.0068 45.5699 40.7736 45.398 40.6017C45.2261 40.4298 44.9929 40.3333 44.7498 40.3333Z" fill="white"/>
<path d="M7.33301 36.6667H5.49967C5.25656 36.6667 5.0234 36.7633 4.85149 36.9352C4.67959 37.1071 4.58301 37.3403 4.58301 37.5834C4.58301 37.8265 4.67959 38.0597 4.85149 38.2316C5.0234 38.4035 5.25656 38.5001 5.49967 38.5001H7.33301C7.57612 38.5001 7.80928 38.4035 7.98119 38.2316C8.1531 38.0597 8.24967 37.8265 8.24967 37.5834C8.24967 37.3403 8.1531 37.1071 7.98119 36.9352C7.80928 36.7633 7.57612 36.6667 7.33301 36.6667Z" fill="white"/>
</g>
<defs>
<clipPath id="clip0_30_274">
<rect width="55" height="55" fill="white"/>
</clipPath>
</defs>
</svg>
