<svg width="56" height="56" viewBox="0 0 56 56" fill="none" xmlns="http://www.w3.org/2000/svg">
<path fill-rule="evenodd" clip-rule="evenodd" d="M1.75 14C1.75 7.23451 7.23451 1.75 14 1.75H36.75C43.5155 1.75 49 7.23451 49 14V24.5C49 25.4665 48.2165 26.25 47.25 26.25C46.2835 26.25 45.5 25.4665 45.5 24.5V14C45.5 9.16755 41.5825 5.25 36.75 5.25H35V15.75C35 16.7165 34.2165 17.5 33.25 17.5H17.5C16.5335 17.5 15.75 16.7165 15.75 15.75V5.25H14C9.16755 5.25 5.25 9.16755 5.25 14V36.75C5.25 41.5825 9.16755 45.5 14 45.5H21.875C22.8415 45.5 23.625 46.2835 23.625 47.25C23.625 48.2165 22.8415 49 21.875 49H14C7.23451 49 1.75 43.5155 1.75 36.75V14ZM19.25 5.25H31.5V14H19.25V5.25Z" fill="white"/>
<path fill-rule="evenodd" clip-rule="evenodd" d="M47.6336 30.2191C42.3415 24.927 33.7612 24.927 28.4691 30.2191C23.177 35.5112 23.177 44.0915 28.4691 49.3836C33.3419 54.2565 41.0024 54.6425 46.317 50.5419L49.5126 53.7374C50.1959 54.4209 51.304 54.4209 51.9874 53.7374C52.6709 53.054 52.6709 51.9459 51.9874 51.2626L48.7919 48.067C52.8925 42.7524 52.5065 35.0919 47.6336 30.2191ZM30.9439 32.6939C34.8693 28.7687 41.2334 28.7687 45.1587 32.6939C49.084 36.6193 49.084 42.9834 45.1587 46.9087C41.2334 50.834 34.8693 50.834 30.9439 46.9087C27.0187 42.9834 27.0187 36.6193 30.9439 32.6939Z" fill="white"/>
</svg>
