<svg width="52" height="52" viewBox="0 0 52 52" fill="none" xmlns="http://www.w3.org/2000/svg">
<path d="M8.16502 14.0255C8.00324 14.0255 7.87207 13.8944 7.87207 13.7326V12.5732C7.87207 12.4114 8.00324 12.2803 8.16502 12.2803C8.3268 12.2803 8.45797 12.4114 8.45797 12.5732V13.7326C8.45797 13.8944 8.3268 14.0255 8.16502 14.0255Z" fill="white"/>
<path d="M7.11329 14.3072C7.01201 14.3072 6.9136 14.2547 6.85925 14.1608L6.2795 13.1567C6.19868 13.0167 6.2466 12.8375 6.38678 12.7565C6.52667 12.6757 6.7059 12.7238 6.78701 12.8638L7.36676 13.8678C7.44758 14.0078 7.39966 14.1871 7.25948 14.268C7.21342 14.2946 7.16292 14.3072 7.11329 14.3072Z" fill="white"/>
<path d="M6.34373 15.0773C6.29409 15.0773 6.24374 15.0647 6.19754 15.0381L5.19339 14.4585C5.05335 14.3775 5.00529 14.1984 5.08611 14.0582C5.16693 13.918 5.34544 13.87 5.48634 13.9509L6.49049 14.5306C6.63053 14.6115 6.67859 14.7906 6.59777 14.9308C6.54342 15.0248 6.445 15.0773 6.34373 15.0773Z" fill="white"/>
<path d="M6.06182 16.1289H4.90232C4.74054 16.1289 4.60938 15.9977 4.60938 15.8359C4.60938 15.6741 4.74054 15.543 4.90232 15.543H6.06182C6.2236 15.543 6.35477 15.6741 6.35477 15.8359C6.35477 15.9977 6.2236 16.1289 6.06182 16.1289Z" fill="white"/>
<path d="M5.34015 17.7602C5.23888 17.7602 5.14046 17.7077 5.08611 17.6137C5.00529 17.4735 5.05335 17.2944 5.19339 17.2135L6.19754 16.6339C6.33786 16.5528 6.51652 16.601 6.59777 16.7412C6.67859 16.8813 6.63053 17.0604 6.49049 17.1414L5.48634 17.721C5.44014 17.7476 5.38978 17.7602 5.34015 17.7602Z" fill="white"/>
<path d="M6.53297 18.9546C6.48333 18.9546 6.43284 18.942 6.38678 18.9154C6.2466 18.8344 6.19868 18.6552 6.2795 18.5152L6.85925 17.5111C6.94006 17.3711 7.11944 17.3228 7.25948 17.4039C7.39966 17.4848 7.44758 17.6641 7.36676 17.8041L6.78701 18.8081C6.73265 18.9021 6.63424 18.9546 6.53297 18.9546Z" fill="white"/>
<path d="M8.16502 19.3915C8.00324 19.3915 7.87207 19.2603 7.87207 19.0985V17.9392C7.87207 17.7774 8.00324 17.6462 8.16502 17.6462C8.3268 17.6462 8.45797 17.7774 8.45797 17.9392V19.0985C8.45797 19.2603 8.3268 19.3915 8.16502 19.3915Z" fill="white"/>
<path d="M9.79688 18.9546C9.69561 18.9546 9.59719 18.9021 9.54284 18.8081L8.96309 17.8041C8.88227 17.6641 8.93019 17.4848 9.07037 17.4039C9.21012 17.3228 9.3895 17.3711 9.4706 17.5111L10.0504 18.5152C10.1312 18.6552 10.0833 18.8344 9.94307 18.9154C9.89701 18.942 9.84652 18.9546 9.79688 18.9546Z" fill="white"/>
<path d="M10.9901 17.7602C10.9404 17.7602 10.8901 17.7476 10.8439 17.721L9.83987 17.1414C9.69983 17.0604 9.65177 16.8813 9.73259 16.7412C9.81355 16.601 9.99193 16.5528 10.1328 16.6339L11.1368 17.2135C11.2769 17.2944 11.3249 17.4735 11.2441 17.6137C11.1898 17.7077 11.0913 17.7602 10.9901 17.7602Z" fill="white"/>
<path d="M11.4279 16.1289H10.2685C10.1068 16.1289 9.97559 15.9977 9.97559 15.8359C9.97559 15.6741 10.1068 15.543 10.2685 15.543H11.4279C11.5897 15.543 11.7208 15.6741 11.7208 15.8359C11.7208 15.9977 11.5897 16.1289 11.4279 16.1289Z" fill="white"/>
<path d="M9.98663 15.0773C9.88536 15.0773 9.78695 15.0248 9.73259 14.9308C9.65177 14.7906 9.69983 14.6115 9.83987 14.5306L10.8439 13.9509C10.9839 13.87 11.163 13.918 11.2441 14.0582C11.3249 14.1984 11.2769 14.3775 11.1368 14.4585L10.1328 15.0381C10.0866 15.0647 10.0363 15.0773 9.98663 15.0773Z" fill="white"/>
<path d="M9.21656 14.3072C9.16693 14.3072 9.11643 14.2946 9.07037 14.268C8.93019 14.1871 8.88227 14.0078 8.96309 13.8678L9.54284 12.8638C9.6238 12.7238 9.80289 12.6757 9.94307 12.7565C10.0833 12.8375 10.1312 13.0167 10.0504 13.1567L9.4706 14.1608C9.41625 14.2547 9.31783 14.3072 9.21656 14.3072Z" fill="white"/>
<path d="M8.16492 17.0966C7.46974 17.0966 6.9043 16.531 6.9043 15.8358C6.9043 15.1408 7.46974 14.5752 8.16492 14.5752C8.86011 14.5752 9.42555 15.1408 9.42555 15.8358C9.42555 16.531 8.86011 17.0966 8.16492 17.0966ZM8.16492 15.1611C7.79287 15.1611 7.4902 15.4638 7.4902 15.8358C7.4902 16.208 7.79287 16.5107 8.16492 16.5107C8.53697 16.5107 8.83965 16.208 8.83965 15.8358C8.83965 15.4638 8.53697 15.1611 8.16492 15.1611Z" fill="white"/>
<path d="M47.0234 31.7666C46.9063 31.6494 46.9063 31.4594 47.0234 31.3422L47.4983 30.8674C47.6154 30.7502 47.8054 30.7502 47.9226 30.8674C48.0397 30.9846 48.0397 31.1746 47.9226 31.2917L47.4477 31.7666C47.3306 31.8837 47.1406 31.8837 47.0234 31.7666Z" fill="white"/>
<path d="M45.4131 33.3767C45.2959 33.2595 45.2959 33.0695 45.4131 32.9524L45.8879 32.4775C46.0051 32.3604 46.195 32.3604 46.3122 32.4775C46.4294 32.5947 46.4294 32.7847 46.3122 32.9018L45.8374 33.3767C45.7202 33.4938 45.5302 33.4938 45.4131 33.3767Z" fill="white"/>
<path d="M47.0234 32.4775C47.1406 32.3604 47.3306 32.3604 47.4477 32.4775L47.9226 32.9524C48.0397 33.0695 48.0397 33.2595 47.9226 33.3767C47.8054 33.4938 47.6154 33.4938 47.4983 33.3767L47.0234 32.9018C46.9063 32.7847 46.9063 32.5947 47.0234 32.4775Z" fill="white"/>
<path d="M45.4131 30.8674C45.5302 30.7502 45.7202 30.7502 45.8374 30.8674L46.3122 31.3422C46.4294 31.4594 46.4294 31.6494 46.3122 31.7666C46.195 31.8837 46.0051 31.8837 45.8879 31.7666L45.4131 31.2917C45.2959 31.1746 45.2959 30.9846 45.4131 30.8674Z" fill="white"/>
<path d="M46.6672 32.3831C46.8114 32.3831 46.9282 32.2662 46.9282 32.1221C46.9282 31.9779 46.8114 31.8611 46.6672 31.8611C46.5231 31.8611 46.4062 31.9779 46.4062 32.1221C46.4062 32.2662 46.5231 32.3831 46.6672 32.3831Z" fill="white"/>
<path d="M27.8838 7.99093C27.7666 7.87376 27.7666 7.68378 27.8838 7.56661L28.3586 7.09178C28.4758 6.97461 28.6657 6.97461 28.7829 7.09178C28.9001 7.20896 28.9001 7.39893 28.7829 7.5161L28.3081 7.99093C28.1909 8.1081 28.0009 8.1081 27.8838 7.99093Z" fill="white"/>
<path d="M26.2734 9.60103C26.1563 9.48386 26.1563 9.29389 26.2734 9.17672L26.7483 8.70189C26.8654 8.58472 27.0554 8.58472 27.1726 8.70189C27.2897 8.81906 27.2897 9.00903 27.1726 9.12621L26.6977 9.60103C26.5806 9.7182 26.3906 9.7182 26.2734 9.60103Z" fill="white"/>
<path d="M27.8838 8.70189C28.0009 8.58472 28.1909 8.58472 28.3081 8.70189L28.7829 9.17672C28.9001 9.29389 28.9001 9.48386 28.7829 9.60103C28.6657 9.7182 28.4758 9.71821 28.3586 9.60104L27.8838 9.12621C27.7666 9.00904 27.7666 8.81906 27.8838 8.70189Z" fill="white"/>
<path d="M26.2734 7.09179C26.3906 6.97461 26.5806 6.97461 26.6977 7.09178L27.1726 7.56661C27.2897 7.68378 27.2897 7.87376 27.1726 7.99093C27.0554 8.1081 26.8654 8.1081 26.7483 7.99093L26.2734 7.5161C26.1563 7.39893 26.1563 7.20896 26.2734 7.09179Z" fill="white"/>
<path d="M27.5276 8.60719C27.6717 8.60719 27.7886 8.49034 27.7886 8.3462C27.7886 8.20205 27.6717 8.08521 27.5276 8.08521C27.3835 8.08521 27.2666 8.20205 27.2666 8.3462C27.2666 8.49034 27.3835 8.60719 27.5276 8.60719Z" fill="white"/>
<path d="M47.749 7.73018C47.6318 7.61301 47.6318 7.42304 47.749 7.30587L48.2238 6.83104C48.341 6.71387 48.531 6.71387 48.6482 6.83104C48.7653 6.94821 48.7653 7.13819 48.6482 7.25536L48.1733 7.73018C48.0562 7.84736 47.8662 7.84736 47.749 7.73018Z" fill="white"/>
<path d="M46.1387 9.34029C46.0215 9.22312 46.0215 9.03315 46.1387 8.91598L46.6135 8.44115C46.7307 8.32398 46.9206 8.32398 47.0378 8.44115C47.155 8.55832 47.155 8.74829 47.0378 8.86546L46.563 9.34029C46.4458 9.45746 46.2558 9.45746 46.1387 9.34029Z" fill="white"/>
<path d="M47.749 8.44115C47.8662 8.32398 48.0562 8.32398 48.1733 8.44115L48.6482 8.91598C48.7653 9.03315 48.7653 9.22312 48.6482 9.34029C48.531 9.45746 48.341 9.45746 48.2238 9.34029L47.749 8.86546C47.6318 8.74829 47.6318 8.55832 47.749 8.44115Z" fill="white"/>
<path d="M46.1387 6.83104C46.2558 6.71387 46.4458 6.71387 46.563 6.83104L47.0378 7.30587C47.155 7.42304 47.155 7.61301 47.0378 7.73018C46.9206 7.84735 46.7307 7.84736 46.6135 7.73018L46.1387 7.25536C46.0215 7.13819 46.0215 6.94821 46.1387 6.83104Z" fill="white"/>
<path d="M47.3928 8.34669C47.537 8.34669 47.6538 8.22984 47.6538 8.0857C47.6538 7.94156 47.537 7.82471 47.3928 7.82471C47.2487 7.82471 47.1318 7.94156 47.1318 8.0857C47.1318 8.22984 47.2487 8.34669 47.3928 8.34669Z" fill="white"/>
<path d="M34.5028 47.7965C33.6762 47.7965 33.0039 47.124 33.0039 46.2975C33.0039 45.4711 33.6762 44.7986 34.5028 44.7986C35.3293 44.7986 36.0017 45.4711 36.0017 46.2975C36.0017 47.124 35.3293 47.7965 34.5028 47.7965ZM34.5028 45.4952C34.0604 45.4952 33.7005 45.8551 33.7005 46.2975C33.7005 46.74 34.0604 47.0999 34.5028 47.0999C34.9451 47.0999 35.305 46.74 35.305 46.2975C35.305 45.8551 34.9451 45.4952 34.5028 45.4952Z" fill="white"/>
<path d="M19.0916 16.9884C18.2651 16.9884 17.5928 16.3159 17.5928 15.4894C17.5928 14.663 18.2651 13.9905 19.0916 13.9905C19.9182 13.9905 20.5905 14.663 20.5905 15.4894C20.5905 16.3159 19.9182 16.9884 19.0916 16.9884ZM19.0916 14.6871C18.6493 14.6871 18.2894 15.047 18.2894 15.4894C18.2894 15.9319 18.6493 16.2918 19.0916 16.2918C19.534 16.2918 19.8939 15.9319 19.8939 15.4894C19.8939 15.047 19.534 14.6871 19.0916 14.6871Z" fill="white"/>
<path d="M5.84165 29.6239C5.01508 29.6239 4.34277 28.9514 4.34277 28.1249C4.34277 27.2985 5.01508 26.626 5.84165 26.626C6.66822 26.626 7.34052 27.2985 7.34052 28.1249C7.34052 28.9514 6.66822 29.6239 5.84165 29.6239ZM5.84165 27.3226C5.39928 27.3226 5.0394 27.6825 5.0394 28.1249C5.0394 28.5674 5.39928 28.9273 5.84165 28.9273C6.28402 28.9273 6.64389 28.5674 6.64389 28.1249C6.64389 27.6825 6.28402 27.3226 5.84165 27.3226Z" fill="white"/>
<path d="M43.858 46.6726C43.783 46.6726 43.7071 46.6595 43.6334 46.6329C43.3985 46.5473 43.236 46.3398 43.209 46.0913L43.0552 44.6868C43.0496 44.6355 43.0191 44.5906 42.9739 44.5664L41.7295 43.8965C41.5095 43.7781 41.3784 43.5493 41.3871 43.2997C41.3961 43.0502 41.5431 42.8316 41.7709 42.7291L43.059 42.1487C43.106 42.1279 43.1396 42.0849 43.1485 42.0346L43.401 40.6441C43.4457 40.398 43.6227 40.2026 43.8631 40.1339C44.1017 40.0638 44.3564 40.1368 44.5244 40.3225L45.4743 41.3686C45.5089 41.4063 45.5594 41.4233 45.6107 41.4184L47.0115 41.2288C47.2572 41.193 47.4993 41.3033 47.6388 41.5098C47.7786 41.7168 47.7882 41.9804 47.6642 42.1971L46.9629 43.424C46.9375 43.4685 46.9356 43.5232 46.9578 43.5696L47.5711 44.8425C47.6794 45.0679 47.6509 45.33 47.4971 45.5269C47.3435 45.7227 47.0976 45.8151 46.8512 45.7629L45.4675 45.4751C45.4189 45.4669 45.3655 45.48 45.3278 45.5153L44.3066 46.4917C44.1825 46.6102 44.0222 46.6726 43.858 46.6726ZM44.0444 40.6035C44.0253 40.6035 44.0094 40.6069 43.9992 40.6098C43.9709 40.618 43.9039 40.6461 43.8885 40.7321L43.636 42.1226C43.5976 42.3335 43.458 42.5119 43.2626 42.6004L41.9743 43.1808C41.8942 43.2166 41.8831 43.2881 41.8821 43.3176C41.8812 43.3467 41.887 43.4187 41.9641 43.4603L43.2085 44.1301C43.3973 44.2317 43.5241 44.4194 43.5475 44.6326L43.7013 46.0376C43.7107 46.1251 43.7755 46.1575 43.8031 46.1677C43.8307 46.1778 43.9013 46.1943 43.9642 46.1338L44.9856 45.1574C45.1413 45.0094 45.3585 44.947 45.5686 44.9905L46.952 45.2783C47.0374 45.2942 47.0891 45.2444 47.107 45.2217C47.1249 45.1985 47.1629 45.1366 47.1247 45.0573L46.5114 43.7843C46.4186 43.5909 46.4268 43.3646 46.533 43.1784L47.2342 41.9514C47.2778 41.8755 47.2446 41.8106 47.2282 41.7865C47.212 41.7628 47.1655 41.7096 47.078 41.7192L45.6772 41.9088C45.4658 41.9398 45.2523 41.8605 45.1079 41.7018L44.1576 40.6553C44.1204 40.6141 44.0776 40.6035 44.0444 40.6035Z" fill="white"/>
<path d="M16.2857 9.98781C16.1392 9.98781 15.9946 9.93752 15.8753 9.84079L14.7797 8.94801C14.74 8.91512 14.6866 8.90593 14.6372 8.91899L13.2807 9.31557C13.0422 9.38618 12.7874 9.31508 12.6183 9.13082C12.4493 8.94704 12.4005 8.68781 12.4907 8.45519L13.0011 7.13729C13.0197 7.08941 13.0135 7.03525 12.9844 6.99317L12.1881 5.82568C12.0474 5.61869 12.0363 5.3556 12.1591 5.13796C12.2817 4.92081 12.5151 4.79458 12.7622 4.80813L14.1734 4.88647C14.2218 4.88647 14.274 4.86616 14.3057 4.82602L15.17 3.70786C15.3226 3.51006 15.5709 3.4201 15.8142 3.4675C16.0591 3.51731 16.2509 3.69771 16.315 3.93952L16.6767 5.30578C16.6898 5.35511 16.7265 5.39525 16.7751 5.41266L18.1054 5.88904C18.3409 5.97368 18.5046 6.18019 18.5329 6.42829C18.5614 6.67639 18.4487 6.91482 18.2388 7.04975L17.0513 7.81583C17.0083 7.84388 16.9814 7.89127 16.98 7.94302L16.9379 9.35474C16.9304 9.60478 16.7846 9.82435 16.5575 9.92833C16.47 9.96798 16.3774 9.98781 16.2857 9.98781ZM14.6815 8.41746C14.8295 8.41746 14.9753 8.46824 15.0928 8.564L16.1883 9.45679C16.2564 9.51289 16.3254 9.49064 16.3515 9.47758C16.3781 9.46549 16.4402 9.42777 16.4426 9.34023L16.4847 7.92803C16.4915 7.7133 16.603 7.51597 16.7829 7.3999L17.9704 6.63383C18.0439 6.58644 18.0442 6.51389 18.0408 6.48487C18.0377 6.45586 18.021 6.38476 17.9383 6.35526L16.608 5.87888C16.4059 5.80634 16.2526 5.63949 16.1979 5.43249L15.8362 4.06624C15.8137 3.9816 15.7448 3.95887 15.716 3.95307C15.6879 3.94823 15.6152 3.94146 15.562 4.01062L14.6975 5.12877C14.5662 5.29853 14.3563 5.39477 14.1461 5.38074L12.7349 5.3024C12.6457 5.30578 12.6045 5.35608 12.5903 5.38171C12.576 5.40686 12.548 5.47409 12.5973 5.54663L13.3936 6.71411C13.5145 6.89064 13.5404 7.11601 13.463 7.31624L12.9525 8.63413C12.9208 8.71586 12.9634 8.77438 12.983 8.79615C13.0028 8.81791 13.0563 8.86434 13.1419 8.84064L14.4984 8.44406C14.5587 8.42617 14.6203 8.41746 14.6815 8.41746Z" fill="white"/>
<path d="M44.8794 23.2131C44.1167 22.6238 43.0124 23.3616 41.0215 24.6939C40.2489 25.2139 39.3724 25.7982 38.3868 26.3876C38.372 26.4024 38.3522 26.4123 38.3324 26.4272C36.6535 27.7693 33.8158 28.5221 31.6368 29.0024C32.4737 28.0961 33.3503 27.0957 34.2516 25.9865H34.3061C36.8813 25.9865 41.8436 24.5304 44.3545 21.2866C47.2912 18.1121 48.0589 14.9377 47.6528 13.7937C47.5289 13.452 47.2912 13.2242 46.9941 13.1697C46.1076 12.9468 45.2657 13.9472 43.7503 15.7399C43.1362 16.463 42.4428 17.2851 41.6406 18.1468C41.6257 18.1616 41.6108 18.1814 41.601 18.1963C40.7095 19.4493 39.1347 20.6181 37.5697 21.5986C41.6929 15.7051 44.2095 12.3829 44.1564 8.86113C44.4684 5.3201 43.4185 3.0173 42.3042 2.37346C41.903 2.14071 41.487 2.13576 41.1998 2.33888C40.0518 3.00276 40.3564 5.19229 39.9419 8.94032C39.9369 8.96511 39.9369 8.99485 39.9419 9.01952C40.0162 10.6737 39.1347 13.0508 38.263 15.0566C37.8888 15.4805 37.206 16.8745 34.9994 20.0337C35.4501 18.226 35.98 16.2748 36.599 15.002C36.604 14.9921 36.6089 14.9772 36.6139 14.9624C38.0798 11.0451 38.7434 9.13341 37.7926 8.39563C37.6242 8.25683 37.327 8.11827 36.8714 8.24208C35.7175 8.54411 33.9149 10.5251 32.7015 13.6897C31.2703 16.7304 31.1663 21.9155 31.8348 24.2036C30.9187 25.3179 29.9827 26.3776 29.0269 27.383C29.0764 27.0363 29.1259 26.655 29.1853 26.2242C29.4577 24.1639 29.7994 21.5937 30.4185 20.0238C30.4234 20.004 30.4284 19.9891 30.4333 19.9742C31.4089 16.4382 31.9983 14.3038 30.9187 13.6649C30.7305 13.5461 30.4036 13.447 29.9381 13.6253C28.8634 14.0413 27.2786 15.9429 26.3674 19.1026C25.1293 22.3266 25.7285 27.7594 26.8082 29.5917C25.0447 31.2435 24.341 31.9076 23.1484 32.9099C23.188 32.5433 23.2276 32.1175 23.2672 31.6371C23.4505 29.6016 23.6783 27.071 24.2527 25.511C24.2577 25.4913 24.2627 25.4763 24.2676 25.4566C25.1145 21.9949 25.6246 19.9048 24.5202 19.3056C24.3221 19.1917 23.9903 19.0977 23.5148 19.2957C22.46 19.7365 20.9495 21.6333 20.1423 24.7038C19.0032 27.8139 19.7659 32.8108 20.8802 34.7324C19.9937 35.4108 19.0973 36.0596 18.201 36.6737C18.196 36.4756 18.191 36.2627 18.1811 36.0397C18.1118 34.0242 18.0326 31.5133 18.4733 29.9087C18.4783 29.8889 18.4832 29.8691 18.4832 29.8443L18.4981 29.7403C18.9834 26.3677 19.2756 24.3324 18.1316 23.8371C17.9236 23.7429 17.577 23.6786 17.1114 23.9163C16.0714 24.4611 14.7788 26.4024 14.2291 29.5076C13.4566 32.281 14.3975 36.2774 15.596 38.3822C14.2886 39.2044 13.0108 39.9423 11.8025 40.596C11.9798 38.4677 12.0407 34.9983 12.7781 33.0485C12.788 33.0287 12.7929 33.0089 12.7979 32.9891L12.8078 32.9395C13.615 29.6116 14.0954 27.6009 13.0108 26.9917C12.8128 26.8778 12.471 26.7739 11.9907 26.9719C10.9061 27.4078 9.44512 29.2005 8.60819 32.2264C7.49884 35.1286 8.28628 39.8135 9.44512 41.7994C7.4097 42.78 5.71599 43.4287 4.61655 43.6862C3.70037 43.9636 3.12095 44.8104 3.29427 45.6028C3.30914 45.6722 3.32894 45.7365 3.3537 45.796C3.56664 46.3605 4.1461 46.6973 4.7899 46.6973C4.97313 46.6973 5.16628 46.6725 5.35448 46.6131C6.68667 46.2913 8.58341 45.5632 10.7922 44.4984C11.9659 46.6874 15.2493 49.6341 18.7705 49.7133C19.3103 49.7776 19.8303 49.8074 20.3354 49.8074C23.4455 49.8074 25.7781 48.6584 26.6101 47.8066C26.9419 47.4649 27.0954 47.1282 27.0558 46.8112C26.9759 45.2999 24.2999 45.669 20.5285 45.2858C20.5038 45.281 20.479 45.281 20.4543 45.281C18.2158 45.3849 15.4672 44.0378 13.5556 43.0722C14.759 42.4185 16.007 41.6854 17.2749 40.8931C18.7606 42.6661 21.623 44.7362 24.7183 44.7362C24.8768 44.7362 25.0352 44.7312 25.1888 44.7213C29.0714 44.8253 31.8745 43.1861 32.7312 42.1213C33.0333 41.7449 33.1472 41.3983 33.0829 41.0814C32.8402 39.5849 30.1603 40.2212 26.4813 40.1651C26.4516 40.1651 26.4318 40.1701 26.407 40.1701C24.5103 40.4326 22.1232 39.66 20.2265 38.9369C21.0882 38.3377 21.9499 37.7088 22.7967 37.055C24.2032 38.1296 26.8924 39.1399 29.6013 39.135C30.7057 39.135 31.815 38.9715 32.8402 38.5705C36.7377 37.4562 39.1792 35.0195 39.6002 33.7221C39.7537 33.2566 39.6546 32.9544 39.5308 32.781C38.7904 31.5992 36.5587 32.9138 32.6272 34.0935C32.6025 34.0984 32.5827 34.1084 32.5629 34.1183C30.5918 35.0096 27.7343 34.9701 25.5156 34.8512C26.4096 34.0777 28.6434 32.0184 28.9922 31.6866C29.9183 32.0828 31.4139 32.3701 33.0977 32.3701C35.3312 32.3701 37.8867 31.8649 39.8478 30.4485C43.5076 28.2695 45.231 25.3328 45.2409 24.0352C45.2459 23.5498 45.028 23.3171 44.8794 23.2131ZM42.3884 18.8005C43.1956 17.929 43.8939 17.1068 44.508 16.3788C45.335 15.3982 46.3602 14.1899 46.7267 14.1354C46.9347 14.6703 46.5137 17.4931 43.6017 20.6477C41.4821 23.3814 37.3617 24.7235 35.0737 24.9613C35.4253 24.5205 35.777 24.0649 36.1286 23.5895C38.2432 22.4157 40.9967 20.7369 42.3884 18.8005ZM40.9324 9.01468C41.1537 6.99416 41.1579 5.4664 41.3236 4.24052C41.4029 3.69087 41.5167 3.29466 41.6951 3.18572C41.7297 3.18572 41.8733 3.23517 42.0813 3.46296C42.74 4.18103 43.4185 6.00855 43.1659 8.79668C43.1659 8.81651 43.1609 8.83634 43.1659 8.85121C43.2055 10.8915 42.1011 13.2637 40.8135 15.2001C40.6897 14.9179 40.4867 14.6949 40.2341 14.5663C40.0409 14.4623 39.828 14.4078 39.615 14.4028C40.3678 12.5556 40.9918 10.5746 40.9324 9.01468ZM33.6128 14.081C34.9598 10.5647 36.7476 9.18298 37.1884 9.18298H37.1933C37.5747 9.5792 36.4059 12.6992 35.6977 14.5909C34.8806 16.2748 34.2417 18.9441 33.7267 21.0885C33.6474 21.4203 33.5632 21.7719 33.479 22.1187C33.1918 22.5 32.8996 22.8763 32.6074 23.2429C32.2558 21.0984 32.3499 16.7651 33.6128 14.081ZM27.3034 19.4147C28.3088 15.9529 29.9975 14.5118 30.3888 14.5118H30.4036C30.8444 14.7693 30.0272 17.7159 29.4874 19.687C28.8287 21.3708 28.4821 23.9906 28.1998 26.0953C28.0859 26.9472 27.9571 27.9328 27.8234 28.6062V28.6112C27.7293 28.7103 27.6303 28.8044 27.5362 28.8935C26.8627 27.4127 26.1 22.5594 27.3034 19.4147ZM21.0832 25.0009C21.9895 21.5788 23.6139 20.1675 24.015 20.1675H24.0348C24.4806 20.41 23.807 23.1685 23.3118 25.1941C22.7027 26.8828 22.4699 29.4679 22.2817 31.548C22.2124 32.3056 22.1381 33.1772 22.044 33.8211C21.9103 33.93 21.7815 34.0341 21.6478 34.133C20.8752 32.6226 20.0135 27.9575 21.0832 25.0009ZM15.1899 29.7502C15.1949 29.7354 15.1998 29.7205 15.1998 29.7008C15.8089 26.229 17.3145 24.7433 17.7106 24.7433H17.7255C18.1861 24.9415 17.7998 27.6356 17.5175 29.6016L17.5076 29.6759C17.0371 31.4242 17.1213 33.9994 17.1906 36.0695C17.2006 36.4756 17.2154 36.9213 17.2253 37.3373C16.9629 37.5106 16.7004 37.684 16.4379 37.8473C15.4128 35.9804 14.4817 32.2463 15.1899 29.7502ZM10.2078 41.1506C9.26188 39.3826 8.5339 35.1532 9.54417 32.5632C9.54913 32.5484 9.55409 32.5334 9.55904 32.5137C10.4703 29.1857 12.0649 27.8485 12.4859 27.8485C12.4958 27.8485 12.5057 27.8485 12.5156 27.8534C12.9564 28.1011 12.3175 30.7605 11.847 32.7068L11.8421 32.7266C10.9597 35.0957 11.0056 39.0994 10.7476 41.1457C10.6089 41.2199 10.4703 41.2943 10.3316 41.3636C10.292 41.2992 10.2524 41.2298 10.2078 41.1506ZM12.8425 43.8199C14.8482 44.8352 17.8691 46.3804 20.4592 46.2714C21.4497 46.3754 22.3708 46.4249 23.183 46.4695C24.3865 46.5338 25.8821 46.6181 26.0752 46.8756C25.9366 47.4253 22.9602 49.228 18.8398 48.7228C15.7248 48.6534 12.9762 46.103 11.8916 44.4044C11.8124 44.2806 11.743 44.1667 11.6836 44.0576C11.9511 43.9239 12.2185 43.7853 12.4908 43.6417C12.6097 43.7011 12.7285 43.7605 12.8425 43.8199ZM26.5011 41.1605C27.4916 41.1705 28.4028 41.1358 29.2101 41.106C30.4086 41.0615 31.8992 41.007 32.1072 41.2497C32.028 41.8044 29.2844 43.8447 25.1739 43.7308C22.4451 43.9191 19.657 42.156 18.1118 40.3582C18.4882 40.1155 18.8646 39.8679 19.2409 39.6153C21.3011 40.4226 24.1487 41.4576 26.5011 41.1605ZM24.4657 35.7872C26.8478 35.9308 30.4383 36.1487 32.9392 35.0344C33.9941 34.7175 34.945 34.3857 35.7819 34.0935C36.9556 33.6824 38.4067 33.1723 38.689 33.311C38.6543 33.8607 36.703 36.436 32.5232 37.6344C29.4478 38.828 25.679 37.6691 23.8962 36.5945C23.7971 36.535 23.703 36.4756 23.6189 36.4161C23.8813 36.2082 24.1438 35.9952 24.4063 35.7822C24.4261 35.7872 24.4459 35.7872 24.4657 35.7872ZM28.1453 31.1221C25.9364 33.2315 24.1487 34.736 22.8958 35.7228C22.8859 35.7328 22.871 35.7425 22.8562 35.7525C21.8757 36.5447 19.9963 37.9256 18.1167 39.1498C18.1069 39.1598 18.1019 39.1647 18.0969 39.1647C14.9637 41.2797 8.57929 44.8228 5.09694 45.6572C4.68589 45.781 4.35409 45.6425 4.27486 45.4443L4.25999 45.3997C4.20552 45.1423 4.45314 44.7709 4.87408 44.6421C8.36764 43.813 13.9895 40.5933 17.2105 38.5209C18.5473 37.6756 20.8395 36.0372 21.8459 35.2326C23.7506 33.8037 25.6817 32.0085 27.5411 30.2603C29.464 28.4799 31.6778 26.0391 33.2165 24.0699C34.2267 22.804 35.4108 21.2173 36.5347 19.5433C38.4528 16.7204 38.8038 15.8626 39.1049 15.6013V15.5963C39.313 15.4082 39.5754 15.329 39.7686 15.4378C39.8627 15.4874 39.9072 15.5865 39.9271 15.6607C39.9865 15.8637 39.9419 16.1163 39.833 16.3045C39.7933 16.3639 39.6943 16.5224 39.5507 16.7602C39.2718 17.2035 38.6631 18.2326 37.545 19.8851C36.2509 21.8215 35.0431 23.4235 33.9594 24.778C33.9049 24.8425 33.8505 24.9118 33.796 24.9762C32.2937 26.8698 30.1138 29.2916 28.1453 31.1221ZM39.303 29.6215C36.5297 31.6272 32.3945 31.5925 30.2947 31.0824C30.0966 31.0329 29.9232 30.9834 29.7747 30.929C29.9876 30.7209 30.2055 30.4981 30.4333 30.2703C30.4878 30.2603 30.5423 30.2455 30.5967 30.2356C32.8897 29.7602 36.713 28.9677 38.9267 27.2195C39.9171 26.6253 40.7987 26.036 41.5712 25.5159C42.6162 24.8177 43.9187 23.9659 44.2554 23.9956C44.3149 24.575 43.047 27.3929 39.303 29.6215Z" fill="white"/>
</svg>
