<svg width="49" height="49" viewBox="0 0 49 49" fill="none" xmlns="http://www.w3.org/2000/svg">
<path d="M44.1131 39.7836C43.9969 39.4935 43.9211 38.5736 43.8594 37.826C43.7258 36.2035 43.5425 33.9811 42.7672 31.9769C42.4321 31.1091 41.7351 29.4629 41.0609 27.8712C40.3133 26.1049 39.3823 23.9062 39.2796 23.5332C38.886 22.1067 38.4703 20.4067 38.068 18.7629C37.3733 15.9256 36.7174 13.2457 36.1317 11.6935C35.5991 10.2797 35.049 9.53755 34.3504 9.28703C33.6517 9.03571 33.0669 9.37159 32.8749 9.48302C31.6199 10.2054 31.8214 12.7051 32.2861 17.0605C32.3975 18.1022 32.5437 19.4749 32.5825 20.4818C32.1747 19.6038 31.6246 18.1954 30.9813 16.1643C29.3604 11.0415 28.4673 9.25225 27.3079 8.80177C26.9878 8.6777 26.486 8.59866 25.9114 8.9298C23.7642 10.1651 24.511 12.4309 25.9992 16.9451C26.2718 17.7655 26.29 17.8477 26.8195 19.4038C27.1609 20.4083 27.5853 21.6554 27.8019 22.5303C26.9554 21.3875 25.7012 19.1691 24.9006 17.7789C24.2684 16.6883 23.7333 15.7478 23.2742 14.9425C21.3419 11.5505 20.7586 10.5262 19.8031 10.2662C19.2365 10.1137 18.752 10.3294 18.3948 10.5349C17.8202 10.8653 17.4543 11.3134 17.3057 11.8682C16.9185 13.3145 18.0044 15.3993 20.7649 20.1641C21.8311 22.0047 22.7407 23.9347 23.2149 25.1359C22.4088 24.3994 21.2952 23.0361 20.5413 22.113C18.2644 19.3256 16.4648 17.1253 14.9048 18.0239C14.3768 18.3274 14.0188 18.7818 13.8695 19.339C13.6663 20.0969 13.8544 20.9828 14.429 21.9723C14.7546 22.535 15.6856 23.7537 16.973 25.4402C18.9251 27.9961 22.7921 33.0596 23.4702 34.8655C22.7573 34.5691 21.4786 33.6428 20.5745 32.9885C18.2035 31.2711 15.7543 29.4945 14.1002 30.446C13.3241 30.8926 12.8523 31.4671 12.699 32.1539C12.2082 34.3431 14.0939 34.3043 18.4122 38.3436C20.2773 40.0831 22.0128 41.8977 25.2555 43.9129C28.2436 45.7694 32.0182 46.3471 32.4813 46.7383C32.916 47.4891 33.2305 48.447 33.2345 48.4565C33.5577 49.4499 35.0625 48.9678 34.7376 47.9672C34.7226 47.9214 34.3701 46.8442 33.8493 45.9448C33.1049 44.6606 29.4623 44.6653 26.09 42.5694C23.0869 40.7027 21.379 38.9498 19.4917 37.1874C17.9712 35.7656 14.9696 33.4374 14.2923 32.9158C14.2512 32.8201 14.2022 32.6573 14.2433 32.4882C14.3144 32.1982 14.6337 31.9619 14.8882 31.8156C15.6532 31.3754 18.1529 33.186 19.6466 34.2688C21.8477 35.8636 23.4385 37.0175 24.5908 36.352C24.8698 36.1916 25.0595 35.9221 25.1251 35.5925C25.408 34.1834 23.2267 31.0261 18.2288 24.4823C17.071 22.9665 16.0713 21.657 15.7954 21.1812C15.4548 20.594 15.3094 20.0732 15.3963 19.75C15.4232 19.6496 15.4809 19.5176 15.6382 19.4141C16.2933 19.4141 18.2604 21.8222 19.3179 23.1159C21.5023 25.7903 23.2291 27.9004 24.7023 27.0524C24.884 26.9481 25.0547 26.7181 25.1093 26.515C25.4554 25.226 22.1677 19.433 22.1337 19.3746C20.0513 15.7802 18.5955 13.1675 18.8342 12.2799C18.8516 12.2143 18.8879 12.0784 19.1851 11.9077C19.3281 11.8255 19.3945 11.8042 19.3937 11.7963C19.7596 11.9654 20.6606 13.546 21.903 15.7273C22.3637 16.5358 22.9003 17.4786 23.535 18.574C25.7455 22.3351 27.3285 25.5785 28.9028 24.6744C30.0574 24.0097 29.4402 22.1936 28.3187 18.8972C27.7228 17.1443 27.8667 17.5466 27.5031 16.452C26.1114 12.2301 25.7178 10.8684 26.7341 10.2765C28.2397 10.7048 30.4233 22.1952 32.5848 23.0345C32.8796 23.1499 33.1902 23.1278 33.455 22.9744C34.4073 22.4275 34.2674 20.7157 33.8604 16.8969C33.6549 14.9733 33.2732 11.394 33.6644 10.8566C33.7695 10.7965 33.8201 10.7839 33.8217 10.7799C33.8588 10.7981 34.1789 10.9925 34.6546 12.2554C35.2063 13.7183 35.882 16.4757 36.534 19.1422C36.9394 20.7971 37.3575 22.5081 37.7574 23.9576C37.8799 24.3994 38.5375 25.965 39.6067 28.4908C40.2761 30.0714 40.9677 31.7058 41.2941 32.5506C41.9872 34.3423 42.1523 36.3481 42.2851 37.9595C42.3428 38.6605 42.421 40.2404 42.8478 40.7375L47.6063 46.3519C47.8884 46.6846 48.3871 46.7272 48.7198 46.4435C49.0525 46.1614 49.0944 45.6627 48.8115 45.33L44.1131 39.7836Z" fill="white"/>
<path d="M24.4409 45.1538C20.4545 46.4088 17.0056 47.2157 14.9548 47.3856C14.8568 46.2792 14.7098 45.1815 14.5146 44.1122C14.4363 43.683 14.0293 43.4025 13.5946 43.4768C13.1655 43.555 12.881 43.9667 12.9592 44.3967C13.1892 45.6541 13.3496 46.9549 13.4366 48.2621C13.465 48.677 13.8104 48.9995 14.2261 48.9995C16.2991 48.9995 20.1953 48.1475 24.9159 46.6617C25.3324 46.5305 25.5631 46.0864 25.4327 45.6707C25.3015 45.2542 24.8574 45.0242 24.4409 45.1538Z" fill="white"/>
<path d="M47.1107 30.4563C45.1444 27.9454 44.0617 26.5624 42.6423 21.8988C42.1404 20.2478 41.6093 17.8381 41.0474 15.287C39.7513 9.40156 38.2821 2.73133 36.1617 0.274254C35.8914 -0.0402903 35.422 -0.0908702 35.0901 0.158078C31.9059 2.5464 28.1203 3.25373 24.4596 3.93814C21.6721 4.45895 18.7891 4.99795 16.1842 6.27114C14.6937 6.99981 12.7242 8.51088 10.4442 10.2598C7.20786 12.743 3.53923 15.5573 0.522615 16.6424C0.190684 16.7617 -0.0219101 17.0873 0.0017992 17.439C0.230199 20.8137 2.38617 23.8643 4.88276 27.3962C7.16044 30.6191 9.7416 34.2711 11.4858 39.0019C11.8478 39.9811 13.3328 39.4429 12.9692 38.4558C11.1531 33.529 8.50713 29.7861 6.17334 26.4842C3.96758 23.3632 2.04396 20.6406 1.64012 17.9045C4.75157 16.6195 8.27557 13.9158 11.406 11.5141C13.5264 9.88682 15.5298 8.35045 16.8781 7.69133C19.2894 6.51218 21.9416 6.01666 24.7488 5.49189C28.3519 4.81855 32.0687 4.12386 35.388 1.88412C37.0516 4.49373 38.4015 10.6242 39.5032 15.6268C40.0722 18.2096 40.6088 20.6485 41.1296 22.3587C42.6336 27.3053 43.8499 28.8582 45.8652 31.4307C46.2864 31.9689 46.744 32.553 47.2498 33.2279C46.7748 33.9068 46.0738 34.6283 45.1586 35.3799C44.8212 35.6565 44.7722 36.1544 45.0488 36.4919C45.327 36.8301 45.8241 36.8791 46.1607 36.6017C47.4205 35.568 48.3404 34.5532 48.8936 33.5851C49.0485 33.3132 49.0296 32.9758 48.8439 32.7245C48.1997 31.8472 47.6283 31.1177 47.1107 30.4563Z" fill="white"/>
<path d="M12.1496 41.1523L9.14251 39.9502C8.74261 39.7906 8.42175 39.4697 8.2621 39.0706L7.05767 36.0611C6.93675 35.7608 6.64671 35.564 6.32347 35.564C6.00023 35.564 5.71019 35.7608 5.59006 36.0603L4.38484 39.0706C4.22519 39.4697 3.90433 39.7906 3.50443 39.9502L0.498083 41.1523C0.197764 41.2724 0.000976562 41.5632 0.000976562 41.8865C0.000976562 42.2097 0.197764 42.5005 0.497292 42.6207L3.50443 43.8227C3.90433 43.9824 4.22519 44.3032 4.38484 44.7023L5.58927 47.7118C5.71019 48.0122 6.00023 48.209 6.32347 48.209C6.64671 48.209 6.93675 48.0122 7.05688 47.7126L8.2621 44.7023C8.42175 44.3032 8.74261 43.9824 9.14251 43.8227L12.1489 42.6207C12.4492 42.5005 12.646 42.2097 12.646 41.8865C12.646 41.5632 12.4492 41.2724 12.1496 41.1523ZM8.5561 42.3551C7.75631 42.6744 7.11378 43.3161 6.7945 44.1151L6.32347 45.2919L5.85244 44.1159C5.53316 43.3161 4.89143 42.6744 4.09163 42.3551L2.9196 41.8865L4.09084 41.4178C4.89143 41.0985 5.53316 40.4568 5.85244 39.6578L6.32347 38.481L6.7945 39.657C7.11378 40.4568 7.75631 41.0985 8.5561 41.4178L9.72734 41.8865L8.5561 42.3551Z" fill="white"/>
<path d="M40.0127 5.47607L42.16 6.33435C42.3892 6.42602 42.5718 6.60859 42.6634 6.83699L43.5233 8.98664C43.6442 9.28695 43.9343 9.48374 44.2575 9.48374C44.5807 9.48374 44.8708 9.28695 44.9909 8.98742L45.8516 6.83778C45.9424 6.60938 46.1258 6.42602 46.355 6.33514L48.5023 5.47686C48.8026 5.35594 48.9994 5.06511 48.9994 4.74187C48.9994 4.41863 48.8026 4.1278 48.5023 4.00767L46.355 3.14939C46.1258 3.05772 45.9432 2.87515 45.8516 2.64675L44.9917 0.497106C44.8708 0.196788 44.5807 0 44.2575 0C43.9343 0 43.6442 0.196788 43.5241 0.496316L42.6634 2.64596C42.5726 2.87436 42.3892 3.05772 42.16 3.1486L40.0127 4.00688C39.7124 4.1278 39.5156 4.41863 39.5156 4.74187C39.5156 5.06511 39.7124 5.35594 40.0127 5.47607ZM42.7464 4.617C43.9493 4.13649 44.1832 3.03875 44.2575 2.91783C44.316 3.01425 44.5562 4.13333 45.7686 4.617L46.08 4.74187L45.7678 4.86674C44.5649 5.34725 44.331 6.44499 44.2575 6.56591C44.199 6.46949 43.9588 5.35041 42.7464 4.86674L42.435 4.74187L42.7464 4.617Z" fill="white"/>
<path d="M0.498083 6.26638L3.07529 7.29695C3.38904 7.42261 3.64194 7.67472 3.7676 7.98847L4.79975 10.568C4.91988 10.8676 5.20992 11.0644 5.53316 11.0644C5.8564 11.0644 6.14644 10.8676 6.26657 10.568L7.29872 7.98847C7.42437 7.67393 7.67727 7.42182 7.99103 7.29695L10.5682 6.26638C10.8686 6.14625 11.0653 5.85542 11.0653 5.53218C11.0653 5.20894 10.8686 4.91811 10.5682 4.79798L7.99103 3.76821C7.67727 3.64255 7.42437 3.39044 7.29872 3.07668L6.26657 0.496316C6.14644 0.196788 5.8564 0 5.53316 0C5.20992 0 4.91988 0.196788 4.79975 0.496316L3.7676 3.07589C3.64115 3.39044 3.38904 3.64255 3.07529 3.76821L0.498083 4.79798C0.197764 4.91811 0.000976562 5.20894 0.000976562 5.53218C0.000976562 5.85542 0.197764 6.14625 0.498083 6.26638ZM3.6617 5.23582C4.37535 4.95051 4.94833 4.37754 5.23442 3.66389L5.53316 2.91783L5.8319 3.66389C6.11799 4.37754 6.69097 4.95051 7.40462 5.23582L8.14593 5.53218L7.40462 5.82855C6.69097 6.11385 6.11799 6.68683 5.8319 7.40048L5.53316 8.14653L5.23442 7.40048C4.94833 6.68683 4.37535 6.11385 3.6617 5.82855L2.92039 5.53218L3.6617 5.23582Z" fill="white"/>
</svg>
