<svg width="57" height="54" viewBox="0 0 57 54" fill="none" xmlns="http://www.w3.org/2000/svg">
<path d="M45.3157 31.3054C41.7437 32.8747 36.0249 34.6698 33.0945 35.3047C33.1083 35.1414 33.1103 34.9731 33.1003 34.7999C33.018 33.3628 31.8976 31.6579 29.0105 31.582C25.1426 31.4803 23.7817 31.3554 20.0799 30.9076C17.3636 30.5795 15.1652 32.2512 13.3178 33.8444C10.5015 36.2736 8.73783 37.4475 5.68548 39.2522C5.37722 39.0361 5.01436 38.9054 4.6263 38.8796C4.07215 38.8437 3.5384 39.02 3.12253 39.379L0.707549 41.463C0.291791 41.8218 0.0421307 42.3206 0.00485268 42.8676C-0.0325394 43.4145 0.147125 43.942 0.510443 44.3527L8.42832 53.3011C8.79164 53.7119 9.29677 53.9585 9.8507 53.9953C9.89869 53.9984 9.94646 54 9.994 54C10.4962 54 10.9746 53.8237 11.3545 53.4958L13.7695 51.4119C14.1853 51.053 14.4349 50.5542 14.4723 50.0072C14.497 49.6439 14.4242 49.29 14.2672 48.9724C17.626 45.7287 19.7702 45.4004 23.4745 45.4716C23.9819 45.4813 24.4289 45.4947 24.8315 45.5067C27.4278 45.5847 28.3029 45.6111 31.5891 44.2187C31.5948 44.2163 31.6006 44.2137 31.6061 44.2113L47.8127 36.7169C50.0883 35.6646 50.5258 33.9371 49.9501 32.6916C49.3035 31.2932 47.3931 30.3926 45.3158 31.3055L45.3157 31.3054ZM13.3348 49.9315C13.3179 50.1784 13.2059 50.403 13.0193 50.5641L10.6042 52.648C10.4177 52.809 10.1775 52.8884 9.92719 52.8718C9.67719 52.8553 9.44976 52.7446 9.28663 52.5602L1.36886 43.6117C1.03006 43.2288 1.06984 42.6451 1.45767 42.3104L3.87265 40.2264C4.04935 40.074 4.26834 39.9991 4.48642 39.9991C4.7468 39.9991 5.00592 40.1057 5.19026 40.3141L13.1081 49.2628C13.2712 49.4471 13.3516 49.6844 13.3349 49.9313L13.3348 49.9315ZM47.3293 35.6972L31.1311 43.1878C28.0839 44.4782 27.4011 44.4579 24.866 44.3816C24.4597 44.3694 24.0086 44.3558 23.4965 44.3461C19.8378 44.2749 17.3129 44.498 13.5687 48.0728L6.49921 40.0829C9.4745 38.3171 11.2564 37.1173 14.0677 34.6924C15.8056 33.1935 17.6909 31.7532 19.9413 32.0251C23.6862 32.4782 25.0631 32.6045 28.9801 32.7076C31.091 32.7631 31.9046 33.8577 31.9623 34.8636C31.9976 35.4809 31.817 35.9754 31.4103 36.3755C29.724 38.0342 24.681 37.7324 22.2574 37.5876C21.8581 37.5637 21.5133 37.543 21.229 37.5323C20.9145 37.5191 20.6496 37.7624 20.6376 38.0731C20.6255 38.3837 20.8706 38.6452 21.1853 38.6572C21.4568 38.6675 21.796 38.6878 22.1886 38.7112C25.1722 38.8895 30.1659 39.1882 32.2148 37.1732C32.4162 36.975 32.5838 36.7604 32.7172 36.53C35.4622 36.0243 41.8828 34.046 45.7791 32.3342C47.2109 31.7045 48.497 32.2594 48.9131 33.1593C49.3374 34.0769 48.7304 35.0495 47.3294 35.6974L47.3293 35.6972ZM30.4488 8.17967V6.4186C30.4488 5.89376 30.0164 5.46674 29.4848 5.46674H24.8659C24.3344 5.46674 23.902 5.89376 23.902 6.4186V8.17967C23.902 8.70452 24.3344 9.13153 24.8659 9.13153H29.4848C30.0164 9.13153 30.4488 8.70452 30.4488 8.17967ZM29.3088 8.00574H25.0421V6.59253H29.3088V8.00574ZM54.9255 2.12033H51.7201C50.5762 2.12033 49.6456 3.03932 49.6456 4.16882V4.30482C47.2002 4.20001 45.6529 3.85765 41.7168 2.6033L34.3388 0.252424C32.6857 -0.274671 31.0318 0.0297427 29.6815 1.10915L26.7503 3.45248H23.8859C22.7702 3.45248 21.8624 4.34884 21.8624 5.45065V12.7867C21.8624 13.8886 22.7701 14.785 23.8859 14.785H24.0765V17.4194C24.0765 17.5577 24.1281 17.691 24.2213 17.7941L24.5827 18.1941V28.2427C24.5827 28.4248 24.6719 28.5955 24.822 28.7011L26.8447 30.1244C26.9436 30.1939 27.0596 30.2288 27.1754 30.2288C27.2912 30.2288 27.4072 30.1939 27.5061 30.1244L29.5288 28.7011C29.679 28.5955 29.7681 28.4248 29.7681 28.2427V26.4409C29.7681 26.229 29.6476 26.0352 29.4564 25.9391L28.7767 25.5979L29.4564 25.2567C29.6477 25.1606 29.7681 24.9668 29.7681 24.7549V23.9204C29.7681 23.7085 29.6476 23.5146 29.4564 23.4186L28.7767 23.0774L29.4564 22.7361C29.6477 22.6401 29.7681 22.4462 29.7681 22.2344V18.1941L30.1296 17.7941C30.2227 17.691 30.2744 17.5575 30.2744 17.4194V16.4847H35.5839C37.4891 16.4847 39.1365 16.7752 40.9256 17.4265C42.2328 17.9023 43.3923 18.0863 44.4683 18.0863C46.2442 18.0863 47.7919 17.5846 49.3945 17.0651C49.5434 17.0168 49.6946 16.9687 49.845 16.9204C50.1772 17.6154 50.8916 18.0986 51.7201 18.0986H54.9255C56.0694 18.0986 57 17.1796 57 16.05V4.16882C57 3.03932 56.0694 2.12033 54.9255 2.12033ZM23.0025 12.7869V5.45076C23.0025 4.96982 23.3989 4.57838 23.886 4.57838H30.465C30.9521 4.57838 31.3485 4.96982 31.3485 5.45076V10.0296H28.9748C27.1726 10.0296 25.7064 11.4774 25.7064 13.2572C25.7064 13.3934 25.716 13.5275 25.7327 13.6593H23.8862C23.399 13.6593 23.0027 13.2679 23.0027 12.7869H23.0025ZM29.1344 17.2048L28.7729 17.6048C28.6798 17.7079 28.6281 17.8414 28.6281 17.9796V21.8891L27.2605 22.5757C27.0692 22.6717 26.9488 22.8656 26.9488 23.0775C26.9488 23.2894 27.0693 23.4832 27.2605 23.5792L28.6281 24.2659V24.4097L27.2605 25.0964C27.0692 25.1924 26.9488 25.3862 26.9488 25.5981C26.9488 25.81 27.0693 26.0039 27.2605 26.0999L28.6281 26.7865V27.9528L27.1754 28.9749L25.7227 27.9528V17.9797C25.7227 17.8413 25.6712 17.708 25.5779 17.6049L25.2165 17.2049V14.7852H26.0965C26.6491 15.7963 27.7318 16.485 28.9747 16.485H29.1344V17.205V17.2048ZM49.039 15.9956C46.556 16.8005 44.4117 17.4957 41.3201 16.3702C39.3988 15.6709 37.6298 15.3591 35.5841 15.3591H28.9748C27.8012 15.3591 26.8464 14.4162 26.8464 13.2572C26.8464 12.0982 27.8012 11.1554 28.9748 11.1554H36.9401C36.9531 11.1554 36.9661 11.1549 36.9791 11.154C38.1899 11.0719 39.1191 10.8159 39.8202 10.371C40.085 10.2031 40.1618 9.85474 39.9916 9.59321C39.8214 9.33169 39.4687 9.25559 39.204 9.42401C38.6794 9.75679 37.9113 9.96056 36.9202 10.0296H32.4885V5.45076C32.4885 4.34895 31.5808 3.45259 30.465 3.45259H28.5621L30.3989 1.98423C31.4397 1.15216 32.7146 0.917428 33.989 1.32384L41.3669 3.67483C45.452 4.97646 47.0497 5.32512 49.6459 5.43151V15.8007C49.4425 15.8654 49.2397 15.9305 49.0391 15.9956H49.039ZM55.8601 16.0501C55.8601 16.559 55.4409 16.9729 54.9257 16.9729H51.7202C51.2049 16.9729 50.7857 16.5589 50.7857 16.0501V4.16882C50.7857 3.65997 51.2049 3.24612 51.7202 3.24612H54.9257C55.4409 3.24612 55.8601 3.66008 55.8601 4.16882V16.0502V16.0501Z" fill="white"/>
</svg>
