<svg width="54" height="54" viewBox="0 0 54 54" fill="none" xmlns="http://www.w3.org/2000/svg">
<g clip-path="url(#clip0_30_682)">
<path d="M45.2368 38.1358C46.0004 36.6204 46.4062 34.9532 46.4062 33.2395C46.4062 30.7142 46.1126 28.1872 45.5347 25.7293L43.621 17.5972C43.1705 15.6811 41.4821 14.3438 39.5145 14.3438H38.7906C38.0194 13.3253 36.8094 12.6562 35.4375 12.6562H32.9062V10.9688H33.75C35.1456 10.9688 36.2812 9.83306 36.2812 8.4375V3.375C36.2812 1.97944 35.1456 0.84375 33.75 0.84375H20.25C18.8544 0.84375 17.7188 1.97944 17.7188 3.375V8.4375C17.7188 9.83306 18.8544 10.9688 20.25 10.9688H21.0938V12.6562H18.5625C17.1897 12.6562 15.9798 13.3253 15.2094 14.3438H14.4855C12.5179 14.3438 10.8295 15.6811 10.379 17.5956L8.46534 25.7285C7.88737 28.1863 7.59375 30.7133 7.59375 33.2395C7.59375 34.9532 7.99959 36.6213 8.76319 38.1358C6.17119 38.7804 4.21875 41.2298 4.21875 44.0876V46.2696C4.21875 47.0104 4.33772 47.7427 4.57228 48.4473C5.51138 51.2637 8.13712 53.1562 11.1054 53.1562H42.8946C45.8637 53.1562 48.4886 51.2637 49.4286 48.4464C49.6623 47.7427 49.7812 47.0104 49.7812 46.2696V44.0876C49.7812 41.2298 47.8288 38.7804 45.2368 38.1358ZM19.4062 8.4375V3.375C19.4062 2.90925 19.7843 2.53125 20.25 2.53125H33.75C34.2157 2.53125 34.5938 2.90925 34.5938 3.375V8.4375C34.5938 8.90325 34.2157 9.28125 33.75 9.28125H20.25C19.7843 9.28125 19.4062 8.90325 19.4062 8.4375ZM22.7812 10.9688H31.2188V12.6562H22.7812V10.9688ZM10.1081 26.1149L12.0217 17.982C12.2875 16.8522 13.273 16.0616 14.4281 16.0355C14.3733 16.3072 14.3438 16.5881 14.3438 16.875V21.0938H16.0312V16.875C16.0312 15.4794 17.1669 14.3438 18.5625 14.3438H35.4375C36.8331 14.3438 37.9688 15.4794 37.9688 16.875V21.0938H39.6562V16.875C39.6562 16.5881 39.6267 16.3072 39.571 16.0363C40.727 16.0625 41.7116 16.8531 41.9774 17.9837L43.891 26.1166C44.4395 28.4479 44.7179 30.845 44.7179 33.2395C44.7179 34.9237 44.2555 36.5572 43.3882 37.9924C42.0289 38.1046 40.7557 38.6699 39.7609 39.636C38.7695 40.5979 38.1637 41.8416 38.0093 43.1916C37.1495 42.6921 36.2391 42.2854 35.2924 41.985C34.8368 38.9635 34.5938 35.8923 34.5938 32.8362V16.0312H32.9062V32.8362C32.9062 35.7455 33.1223 38.6674 33.5256 41.5505C32.7653 41.4172 31.9933 41.3438 31.2188 41.3438H22.7812C22.0067 41.3438 21.2347 41.4172 20.4744 41.5505C20.8778 38.6674 21.0938 35.7455 21.0938 32.8362V16.0312H19.4062V32.8362C19.4062 35.8923 19.1632 38.9635 18.7059 41.985C17.7592 42.2854 16.8488 42.6921 15.9891 43.1916C15.8347 41.8416 15.2288 40.597 14.2374 39.636C13.2418 38.6707 11.9838 38.1122 10.6127 37.9958C9.74363 36.5588 9.28125 34.9245 9.28125 33.2395C9.28125 30.8441 9.55969 28.447 10.1081 26.1149ZM48.0938 46.2696C48.0938 46.829 48.0043 47.3825 47.828 47.9132C47.1184 50.0403 45.1356 51.4688 42.8946 51.4688H11.1054C8.86444 51.4688 6.88162 50.0403 6.17287 47.914C5.99569 47.3825 5.90625 46.829 5.90625 46.2696V44.0876C5.90625 41.7133 7.74056 39.7263 9.99506 39.6588C11.1442 39.6208 12.2369 40.0461 13.0629 40.8468C13.889 41.6483 14.3438 42.7241 14.3438 43.875V45.5625C14.3438 47.8887 16.2363 49.7812 18.5625 49.7812H20.25V48.0938H18.5625C17.1669 48.0938 16.0312 46.9581 16.0312 45.5625V45.1609C18.0022 43.7898 20.3791 43.0312 22.7812 43.0312H31.2188C33.6209 43.0312 35.9977 43.7898 37.9688 45.1609V45.5625C37.9688 46.9581 36.8331 48.0938 35.4375 48.0938H33.75V49.7812H35.4375C37.7637 49.7812 39.6562 47.8887 39.6562 45.5625V43.875C39.6562 42.7241 40.111 41.6483 40.9379 40.8468C41.7639 40.0461 42.8608 39.6225 44.0058 39.6588C46.2594 39.7263 48.0938 41.7133 48.0938 44.0876V46.2696Z" fill="#FF0000"/>
<path d="M52.3125 5.0625C50.4512 5.0625 48.9375 3.54881 48.9375 1.6875C48.9375 1.22091 48.5603 0.84375 48.0938 0.84375C47.6272 0.84375 47.25 1.22091 47.25 1.6875C47.25 3.54881 45.7363 5.0625 43.875 5.0625C43.4084 5.0625 43.0312 5.43966 43.0312 5.90625C43.0312 6.37284 43.4084 6.75 43.875 6.75C45.7363 6.75 47.25 8.26369 47.25 10.125C47.25 10.5916 47.6272 10.9688 48.0938 10.9688C48.5603 10.9688 48.9375 10.5916 48.9375 10.125C48.9375 8.26369 50.4512 6.75 52.3125 6.75C52.7791 6.75 53.1562 6.37284 53.1562 5.90625C53.1562 5.43966 52.7791 5.0625 52.3125 5.0625ZM48.0938 7.32966C47.7191 6.76603 47.234 6.28088 46.6703 5.90625C47.234 5.53162 47.7191 5.04647 48.0938 4.48284C48.4684 5.04647 48.9535 5.53162 49.5172 5.90625C48.9535 6.28088 48.4684 6.76603 48.0938 7.32966Z" fill="#FF0000"/>
<path d="M5.90625 18.5625C6.37284 18.5625 6.75 18.1853 6.75 17.7188C6.75 15.8574 8.26369 14.3438 10.125 14.3438C10.5916 14.3438 10.9688 13.9666 10.9688 13.5C10.9688 13.0334 10.5916 12.6562 10.125 12.6562C8.26369 12.6562 6.75 11.1426 6.75 9.28125C6.75 8.81466 6.37284 8.4375 5.90625 8.4375C5.43966 8.4375 5.0625 8.81466 5.0625 9.28125C5.0625 11.1426 3.54881 12.6562 1.6875 12.6562C1.22091 12.6562 0.84375 13.0334 0.84375 13.5C0.84375 13.9666 1.22091 14.3438 1.6875 14.3438C3.54881 14.3438 5.0625 15.8574 5.0625 17.7188C5.0625 18.1853 5.43966 18.5625 5.90625 18.5625ZM5.90625 12.0766C6.28088 12.6402 6.76603 13.1254 7.32966 13.5C6.76603 13.8746 6.28088 14.3598 5.90625 14.9234C5.53162 14.3598 5.04647 13.8746 4.48284 13.5C5.04647 13.1254 5.53162 12.6402 5.90625 12.0766Z" fill="#FF0000"/>
</g>
<defs>
<clipPath id="clip0_30_682">
<rect width="54" height="54" fill="white"/>
</clipPath>
</defs>
</svg>
